<?xml version="1.0" standalone="no"?>
<!DOCTYPE svg PUBLIC "-//W3C//DTD SVG 20010904//EN"
 "http://www.w3.org/TR/2001/REC-SVG-20010904/DTD/svg10.dtd">
<svg version="1.0" xmlns="http://www.w3.org/2000/svg"
 width="192.000000pt" height="192.000000pt" viewBox="0 0 192.000000 192.000000"
 preserveAspectRatio="xMidYMid meet">
<metadata>
Created by potrace 1.14, written by Peter Selinger 2001-2017
</metadata>
<g transform="translate(0.000000,192.000000) scale(0.100000,-0.100000)"
fill="#000000" stroke="none">
<path d="M810 1908 c-96 -13 -249 -69 -343 -124 -79 -48 -277 -227 -277 -252
0 -6 12 -12 27 -14 23 -3 41 -31 164 -258 75 -140 140 -255 144 -255 3 0 67
116 142 258 l137 257 113 0 c62 0 113 -2 113 -4 0 -6 -140 -256 -291 -521
l-114 -200 -5 -200 -5 -200 -95 0 -95 0 -3 193 -2 193 -162 290 c-88 159 -164
289 -168 289 -4 0 -22 -43 -39 -95 -87 -264 -56 -560 85 -798 66 -111 220
-265 331 -331 241 -142 540 -173 804 -82 146 49 246 113 364 231 l100 100
-280 5 -280 5 -3 563 -2 562 100 0 100 0 0 -470 0 -470 238 2 237 3 28 83 c83
249 49 551 -89 785 -66 111 -220 265 -331 331 -189 111 -419 156 -643 124z"/>
</g>
</svg>
